# xmcd
#
# Track frame offsets:
#	150
#	24750
#	62644
#	110149
#	142303
#	180756
#	235369
#	240350
#
# Disc length: 3528 seconds
#
# Revision: 0
# Processed by: cddbd v1.5.2PL0 Copyright (c) Steve Scherf et al.
# Submitted via: audiograbber 1.83.01
#
DISCID=630dc608
DTITLE=Grateful Dead - 77-04-23 Springfield Civic Centre Arena, Springfield MA
DYEAR=1900
DGENRE=
TTITLE0=Help On The Way
TTITLE1=Slipknot!
TTITLE2=Franklin's Tower
TTITLE3=Around and Around
TTITLE4=GDTRFD
TTITLE5=Not Fade Away
TTITLE6=Tuning
TTITLE7=One More Saturday Night
EXTD=
EXTT0=
EXTT1=
EXTT2=
EXTT3=
EXTT4=
EXTT5=
EXTT6=
EXTT7=
PLAYORDER=
